HIERARCHY
ROOT Hips
{
 OFFSET 0.000000 0.000000 0.000000
 CHANNELS 6 Xposition Yposition Zposition Yrotation Xrotation Zrotation
 JOINT Chest
 {
  OFFSET 0.000000 9.588913 -0.003946
  CHANNELS 3 Yrotation Xrotation Zrotation
  JOINT Chest2
  {
   OFFSET 0.000000 9.541882 0.008053
   CHANNELS 3 Yrotation Xrotation Zrotation
   JOINT Chest3
   {
    OFFSET 0.000000 9.501360 0.000000
    CHANNELS 3 Yrotation Xrotation Zrotation
    JOINT Chest4
    {
     OFFSET 0.000000 9.491660 0.000000
     CHANNELS 3 Yrotation Xrotation Zrotation
     JOINT Neck
     {
      OFFSET 0.000000 14.331917 0.000000
      CHANNELS 3 Yrotation Xrotation Zrotation
      JOINT Head
      {
       OFFSET 0.000000 8.884799 0.017034
       CHANNELS 3 Yrotation Xrotation Zrotation
       End Site
       {
        OFFSET 0.000000 16.896195 0.008993
       }
      }
     }
     JOINT RightCollar
     {
      OFFSET -2.923010 9.499495 0.000000
      CHANNELS 3 Yrotation Xrotation Zrotation
      JOINT RightShoulder
      {
       OFFSET -13.795216 0.000000 0.000000
       CHANNELS 3 Yrotation Xrotation Zrotation
       JOINT RightElbow
       {
        OFFSET -30.272209 0.000000 0.000000
        CHANNELS 3 Yrotation Xrotation Zrotation
        JOINT RightWrist
        {
         OFFSET -24.478199 0.000000 0.000000
         CHANNELS 3 Yrotation Xrotation Zrotation
         End Site
         {
          OFFSET -18.090752 0.000000 0.000000
         }
        }
       }
      }
     }
     JOINT LeftCollar
     {
      OFFSET 2.923010 9.499495 0.000000
      CHANNELS 3 Yrotation Xrotation Zrotation
      JOINT LeftShoulder
      {
       OFFSET 13.795216 0.000000 0.000000
       CHANNELS 3 Yrotation Xrotation Zrotation
       JOINT LeftElbow
       {
        OFFSET 30.272209 0.000000 0.000000
        CHANNELS 3 Yrotation Xrotation Zrotation
        JOINT LeftWrist
        {
         OFFSET 24.478199 0.000000 0.000000
         CHANNELS 3 Yrotation Xrotation Zrotation
         End Site
         {
          OFFSET 18.090752 0.000000 0.000000
         }
        }
       }
      }
     }
    }
   }
  }
 }
 JOINT RightHip
 {
  OFFSET -7.826875 0.019532 0.001973
  CHANNELS 3 Yrotation Xrotation Zrotation
  JOINT RightKnee
  {
   OFFSET 0.000000 -40.546152 -0.001885
   CHANNELS 3 Yrotation Xrotation Zrotation
   JOINT RightAnkle
   {
    OFFSET 0.000000 -39.417092 -0.003189
    CHANNELS 3 Yrotation Xrotation Zrotation
    JOINT RightToe
    {
     OFFSET 0.000000 -7.579396 17.243563
     CHANNELS 3 Yrotation Xrotation Zrotation
     End Site
     {
      OFFSET 0.000000 -1.500329 6.694466
     }
    }
   }
  }
 }
 JOINT LeftHip
 {
  OFFSET 7.826875 0.019532 0.001973
  CHANNELS 3 Yrotation Xrotation Zrotation
  JOINT LeftKnee
  {
   OFFSET 0.000000 -40.546152 -0.001885
   CHANNELS 3 Yrotation Xrotation Zrotation
   JOINT LeftAnkle
   {
    OFFSET 0.000000 -39.417092 -0.003189
    CHANNELS 3 Yrotation Xrotation Zrotation
    JOINT LeftToe
    {
     OFFSET 0.000000 -7.579396 17.243563
     CHANNELS 3 Yrotation Xrotation Zrotation
     End Site
     {
      OFFSET 0.000000 -1.500329 6.694466
     }
    }
   }
  }
 }
}
MOTION
Frames: 17
Frame Time: 0.008333
0.000000 87.345680 0.000000 0.000000 -5.767889 0.000000 0.000000 11.653876 0.000000 0.000000 -5.885988 0.000000 0.000000 -0.000000 0.000000 0.000000 -0.000000 0.000000 0.000000 12.528808 0.000000 0.000000 0.711711 0.000000 0.000000 -0.000000 0.000000 0.000000 -0.000000 0.000000 2.309063 -0.000000 0.000000 -2.309063 -0.000000 -0.000000 0.000000 -0.000000 0.000000 0.000000 0.000000 0.000000 -2.309063 0.000000 0.000000 2.309063 -0.000000 0.000000 0.000000 8.520374 0.000000 0.000000 1.905768 0.000000 -0.000000 -4.658254 0.000000 0.000000 -0.000000 0.000000 0.000000 8.520374 0.000000 0.000000 1.905768 0.000000 -0.000000 -4.658254 0.000000 0.000000 -0.000000 0.000000
3.403534 89.050115 -26.182953 -133.632910 -4.972247 -0.541494 0.205968 0.458026 -0.493759 0.132543 0.253987 -0.265145 0.165495 0.317579 -0.331340 0.132543 0.253987 -0.265145 3.529592 20.310643 -0.031968 6.432546 1.994554 -1.101249 -0.447828 -1.760535 -2.836314 -1.337846 7.043372 97.493101 0.384532 2.446388 -0.291966 -1.144609 -2.011027 -2.488263 -0.936629 0.036731 3.641763 3.509097 6.198605 -91.527956 -1.892546 10.757130 -1.159053 1.807929 0.568691 0.482401 -8.172001 8.614813 1.121324 -1.663136 1.240991 -1.316834 -9.665032 -4.995346 0.857156 -0.013276 0.010641 -0.001967 2.931515 9.211236 -1.029608 -1.008227 0.907591 0.411568 5.797532 -4.950266 0.724563 -0.002704 0.072727 -0.004772
3.415204 89.049684 -26.175568 -133.581903 -4.974099 -0.535970 0.199532 0.445831 -0.490381 0.129147 0.247414 -0.264372 0.161256 0.309360 -0.330378 0.129147 0.247414 -0.264372 3.520815 20.327002 -0.027290 6.414739 2.024309 -1.089382 -0.451388 -1.685338 -2.840904 -1.363537 7.056888 97.469025 0.487876 2.511114 -0.264651 -1.128887 -2.014216 -2.504533 -0.928164 0.106797 3.601176 3.526200 6.177209 -91.485176 -1.913124 10.813004 -1.134290 1.807609 0.582544 0.454446 -8.186391 8.606100 1.115885 -1.671078 1.256087 -1.307781 -9.702207 -5.009313 0.849854 -0.015097 0.013926 -0.001981 2.906321 9.169962 -1.030572 -1.031119 0.966019 0.402039 5.802094 -4.973648 0.727279 -0.000007 0.071395 -0.004378
3.428254 89.049448 -26.167226 -133.533721 -4.980827 -0.529524 0.193788 0.436978 -0.488140 0.126297 0.242678 -0.264057 0.157697 0.303438 -0.329988 0.126297 0.242678 -0.264057 3.513447 20.340448 -0.022259 6.399477 2.048700 -1.077432 -0.453962 -1.613191 -2.842633 -1.383429 7.065243 97.445495 0.593022 2.560546 -0.233822 -1.108239 -2.016504 -2.527667 -0.917781 0.173329 3.558225 3.535734 6.151099 -91.441043 -1.931298 10.856704 -1.109847 1.801012 0.595706 0.435696 -8.199512 8.598069 1.106239 -1.676630 1.277453 -1.294195 -9.738926 -5.025179 0.840741 -0.016494 0.016316 -0.002053 2.880721 9.131659 -1.031927 -1.054668 1.026087 0.395381 5.800698 -4.995874 0.729196 0.001453 0.069387 -0.005408
3.442679 89.049474 -26.157599 -133.490635 -4.988069 -0.522695 0.190320 0.430676 -0.486808 0.124698 0.239474 -0.264842 0.155700 0.299432 -0.330972 0.124698 0.239474 -0.264842 3.507166 20.349928 -0.015936 6.385923 2.065708 -1.063642 -0.455027 -1.545272 -2.836954 -1.398504 7.067805 97.420992 0.698324 2.594691 -0.202231 -1.084081 -2.018084 -2.551601 -0.907520 0.235060 3.516508 3.536837 6.116228 -91.397544 -1.943343 10.888674 -1.082708 1.789085 0.606662 0.425245 -8.207483 8.586149 1.091158 -1.680002 1.305827 -1.276999 -9.761512 -5.042179 0.832119 -0.016535 0.017546 -0.001923 2.855098 9.091507 -1.036717 -1.079046 1.088456 0.392183 5.809101 -5.017914 0.729578 0.002689 0.066977 -0.005919
3.458111 89.049874 -26.146773 -133.456348 -4.994707 -0.516057 0.190151 0.428856 -0.486821 0.124964 0.238683 -0.266316 0.156032 0.298444 -0.332814 0.124964 0.238683 -0.266316 3.501992 20.353605 -0.008892 6.374331 2.071956 -1.049144 -0.454558 -1.487693 -2.823145 -1.411350 7.064179 97.391819 0.800725 2.614897 -0.169442 -1.059475 -2.017442 -2.574361 -0.898927 0.283344 3.477277 3.533159 6.073360 -91.351966 -1.944628 10.913453 -1.055903 1.772185 0.612421 0.424352 -8.205030 8.567551 1.077426 -1.684564 1.341990 -1.257298 -9.792576 -5.059454 0.821976 -0.017366 0.017430 -0.002043 2.833910 9.049564 -1.044356 -1.111297 1.151899 0.392085 5.835900 -5.039395 0.727826 0.004173 0.063835 -0.005190
3.474098 89.050781 -26.135462 -133.432794 -5.003121 -0.512231 0.193243 0.432065 -0.486986 0.127128 0.240772 -0.267076 0.158735 0.301057 -0.333763 0.127128 0.240772 -0.267076 3.497607 20.351975 -0.001987 6.364361 2.068394 -1.035381 -0.451611 -1.442342 -2.806690 -1.422436 7.056352 97.359667 0.898754 2.622226 -0.136030 -1.035502 -2.018422 -2.594637 -0.890702 0.318094 3.438580 3.525893 6.023666 -91.303353 -1.936566 10.933978 -1.029918 1.752963 0.614378 0.432403 -8.189881 8.544098 1.067918 -1.690745 1.388115 -1.235483 -9.831873 -5.076965 0.809715 -0.018715 0.014974 -0.001799 2.821324 9.009535 -1.047546 -1.149465 1.215726 0.394605 5.859871 -5.060612 0.723225 0.004772 0.060225 -0.004582
3.490470 89.052222 -26.123642 -133.417290 -5.012136 -0.511529 0.198917 0.437434 -0.486078 0.130833 0.244258 -0.266496 0.163363 0.305417 -0.333033 0.130833 0.244258 -0.266496 3.492667 20.348235 0.005169 6.353365 2.060886 -1.021099 -0.447632 -1.402919 -2.791476 -1.427556 7.042981 97.329437 0.989066 2.612663 -0.105923 -1.011240 -2.022897 -2.612372 -0.885226 0.347689 3.399274 3.514180 5.969733 -91.257324 -1.925642 10.946473 -1.000581 1.734286 0.617494 0.449972 -8.166542 8.515727 1.060733 -1.696524 1.443530 -1.211890 -9.870226 -5.095100 0.797313 -0.019986 0.010526 -0.001671 2.811801 8.969413 -1.046628 -1.180847 1.281038 0.398456 5.873483 -5.082141 0.717595 0.004819 0.056312 -0.004667
3.506819 89.054125 -26.110601 -133.405946 -5.019491 -0.509709 0.205349 0.441787 -0.485382 0.135103 0.247367 -0.265856 0.168700 0.309307 -0.332229 0.135103 0.247367 -0.265856 3.487424 20.345608 0.013680 6.341385 2.055360 -1.004211 -0.443498 -1.362873 -2.777623 -1.423334 7.022449 97.306526 1.065550 2.589330 -0.083532 -0.984815 -2.029313 -2.631037 -0.882657 0.377364 3.363735 3.502046 5.917101 -91.219424 -1.915194 10.952991 -0.967688 1.713370 0.620643 0.479549 -8.142181 8.480740 1.052062 -1.701464 1.506345 -1.188262 -9.908482 -5.114907 0.787071 -0.022123 0.005680 -0.002750 2.795947 8.927004 -1.050972 -1.199287 1.346112 0.402290 5.894161 -5.102141 0.714592 0.005722 0.051283 -0.005172
3.522834 89.056406 -26.096420 -133.399123 -5.026391 -0.505451 0.213048 0.444845 -0.485761 0.140225 0.250048 -0.266364 0.175100 0.312662 -0.332860 0.140225 0.250048 -0.266364 3.481753 20.345117 0.024110 6.328001 2.053686 -0.983607 -0.442894 -1.322868 -2.765182 -1.410532 6.997173 97.294200 1.126139 2.563792 -0.069822 -0.956591 -2.034836 -2.653977 -0.883870 0.406236 3.336631 3.497463 5.869868 -91.189498 -1.907279 10.962951 -0.936043 1.688742 0.618268 0.519754 -8.119379 8.441683 1.037483 -1.705793 1.574523 -1.163091 -9.934674 -5.135814 0.778499 -0.024180 0.000400 -0.004296 2.771313 8.885887 -1.061606 -1.206840 1.406716 0.406011 5.923861 -5.118565 0.713241 0.007743 0.044988 -0.005232
3.538582 89.058935 -26.081683 -133.396754 -5.035009 -0.500881 0.223082 0.449441 -0.486531 0.146649 0.253705 -0.267799 0.183126 0.317238 -0.334648 0.146649 0.253705 -0.267799 3.474459 20.345693 0.035346 6.311399 2.053890 -0.961011 -0.448945 -1.288460 -2.754551 -1.394397 6.968812 97.290098 1.173888 2.546692 -0.061580 -0.929555 -2.039383 -2.683276 -0.890701 0.428468 3.316148 3.502319 5.830900 -91.165879 -1.905428 10.978562 -0.908292 1.662436 0.609467 0.567257 -8.101707 8.402125 1.016375 -1.706139 1.646375 -1.132021 -9.946907 -5.156148 0.768345 -0.025268 -0.006284 -0.005667 2.740425 8.848536 -1.072469 -1.208520 1.463347 0.409122 5.952125 -5.132692 0.710533 0.010353 0.038273 -0.003981
3.553907 89.061549 -26.066653 -133.393338 -5.047597 -0.496143 0.230930 0.458197 -0.487339 0.151713 0.259397 -0.269465 0.189451 0.324358 -0.336725 0.151713 0.259397 -0.269465 3.467508 20.346980 0.044987 6.295873 2.055513 -0.941384 -0.452533 -1.262458 -2.746845 -1.379777 6.936518 97.289332 1.209664 2.545749 -0.056792 -0.904939 -2.045285 -2.716053 -0.894493 0.442397 3.296658 3.514657 5.801765 -91.147766 -1.914954 10.998253 -0.884464 1.634461 0.596365 0.616643 -8.094116 8.363899 0.991343 -1.694070 1.723142 -1.095640 -9.967813 -5.176921 0.756672 -0.026897 -0.013974 -0.007768 2.703419 8.816731 -1.082816 -1.213502 1.516906 0.411115 5.982426 -5.145736 0.707420 0.013281 0.031905 -0.002185
3.568994 89.064048 -26.051402 -133.385490 -5.064733 -0.491788 0.233603 0.470828 -0.488638 0.153758 0.266859 -0.270789 0.192001 0.333687 -0.338375 0.153758 0.266859 -0.270789 3.462414 20.349738 0.052486 6.284319 2.060050 -0.926126 -0.448904 -1.242904 -2.742126 -1.364472 6.900028 97.289154 1.235425 2.561717 -0.051709 -0.883596 -2.049897 -2.751523 -0.891531 0.452805 3.277010 3.532323 5.778601 -91.132885 -1.937938 11.017777 -0.868767 1.606747 0.579038 0.665607 -8.094509 8.325345 0.965560 -1.666401 1.809920 -1.058228 -10.006912 -5.200908 0.748252 -0.030367 -0.022225 -0.012168 2.658319 8.789849 -1.092393 -1.227649 1.569221 0.412019 6.019845 -5.158813 0.704615 0.016319 0.026319 -0.000569
3.584353 89.066242 -26.036021 -133.375526 -5.086247 -0.489344 0.233354 0.486095 -0.490920 0.154183 0.275589 -0.271914 0.192525 0.344600 -0.339777 0.154183 0.275589 -0.271914 3.458284 20.354019 0.059763 6.274548 2.067465 -0.911488 -0.443020 -1.227393 -2.735614 -1.344816 6.861505 97.287444 1.255656 2.590458 -0.043642 -0.864781 -2.050955 -2.789970 -0.890390 0.462980 3.260614 3.551859 5.756710 -91.117963 -1.970898 11.027981 -0.866666 1.579356 0.560175 0.713238 -8.098734 8.283721 0.939017 -1.629351 1.912275 -1.019627 -10.049583 -5.230784 0.744517 -0.035029 -0.031071 -0.018653 2.600786 8.765144 -1.100779 -1.245528 1.625003 0.412215 6.067860 -5.174680 0.700294 0.019557 0.021892 0.001840
3.600286 89.067986 -26.020487 -133.364663 -5.112920 -0.489133 0.231899 0.503379 -0.493311 0.153905 0.285465 -0.273406 0.192169 0.356946 -0.341638 0.153905 0.285465 -0.273406 3.454255 20.359279 0.068177 6.264598 2.076641 -0.894764 -0.436647 -1.214743 -2.724573 -1.318275 6.822323 97.284248 1.272441 2.624357 -0.036579 -0.846680 -2.048480 -2.826162 -0.894470 0.473686 3.247533 3.566862 5.735061 -91.101206 -2.010186 11.026805 -0.876010 1.549111 0.542620 0.752722 -8.104713 8.239217 0.906813 -1.587946 2.032682 -0.977317 -10.071023 -5.268100 0.744824 -0.038043 -0.040463 -0.025244 2.521848 8.742133 -1.108616 -1.260552 1.686645 0.412736 6.126241 -5.195608 0.692887 0.022707 0.019389 0.004990
3.617183 89.069197 -26.004980 -133.351721 -5.146312 -0.492996 0.229082 0.524024 -0.494324 0.152760 0.297310 -0.274559 0.190728 0.371751 -0.343076 0.152760 0.297310 -0.274559 3.449367 20.363961 0.077233 6.252913 2.084684 -0.876653 -0.430176 -1.208144 -2.711872 -1.280168 6.783287 97.280547 1.289230 2.657495 -0.030040 -0.829177 -2.043233 -2.855439 -0.900031 0.482930 3.234705 3.574579 5.712166 -91.083850 -2.053355 11.024593 -0.889862 1.516915 0.527627 0.781924 -8.107914 8.192342 0.870712 -1.544351 2.173604 -0.929805 -10.074330 -5.313411 0.747297 -0.038496 -0.050930 -0.030732 2.417461 8.720402 -1.114557 -1.273973 1.757743 0.413990 6.199065 -5.224393 0.682686 0.025170 0.019413 0.007803
3.635363 89.069833 -25.989520 -133.337450 -5.187767 -0.501631 0.225065 0.550128 -0.494559 0.151056 0.311909 -0.274550 0.188587 0.389998 -0.343061 0.151056 0.311909 -0.274550 3.442940 20.366645 0.086517 6.238414 2.088953 -0.857767 -0.424689 -1.210654 -2.699466 -1.232534 6.746495 97.275441 1.310428 2.690004 -0.019407 -0.812879 -2.036307 -2.874128 -0.905367 0.488039 3.220705 3.574409 5.687176 -91.066009 -2.098477 11.026166 -0.903998 1.486312 0.518500 0.800724 -8.102193 8.139068 0.843059 -1.501368 2.341461 -0.879599 -10.110063 -5.368771 0.749042 -0.040558 -0.062443 -0.036152 2.288129 8.700004 -1.121562 -1.286412 1.839949 0.415393 6.307555 -5.261736 0.670702 0.028088 0.021370 0.011335
